<svg width="16" height="16" viewBox="0 0 16 16" fill="none" xmlns="http://www.w3.org/2000/svg">
<g clip-path="url(#clip0_4808_5068)">
<path d="M8 1.5C6.71442 1.5 5.45772 1.88122 4.3888 2.59545C3.31988 3.30968 2.48676 4.32484 1.99479 5.51256C1.50282 6.70028 1.37409 8.00721 1.6249 9.26809C1.8757 10.529 2.49477 11.6872 3.40381 12.5962C4.31285 13.5052 5.47104 14.1243 6.73191 14.3751C7.99279 14.6259 9.29972 14.4972 10.4874 14.0052C11.6752 13.5132 12.6903 12.6801 13.4046 11.6112C14.1188 10.5423 14.5 9.28558 14.5 8C14.4982 6.27665 13.8128 4.62441 12.5942 3.40582C11.3756 2.18722 9.72335 1.50182 8 1.5Z" fill="#2C2A2E" fill-opacity="0.05"/>
<path d="M7.99902 2.01074C9.58722 2.01242 11.1104 2.64358 12.2334 3.7666C13.2861 4.81933 13.9074 6.22326 13.9824 7.70312L13.9893 8.00098C13.9891 9.18529 13.6384 10.3434 12.9805 11.3281C12.3223 12.313 11.3864 13.0809 10.292 13.5342C9.19759 13.9874 7.99284 14.1061 6.83105 13.875C5.66929 13.6438 4.60225 13.0729 3.76465 12.2354C2.92705 11.3978 2.35616 10.3307 2.125 9.16895C1.89391 8.00716 2.01257 6.80241 2.46582 5.70801C2.91914 4.61361 3.68697 3.67768 4.67188 3.01953C5.65661 2.36156 6.81471 2.01094 7.99902 2.01074Z" stroke="#2C2A2E" stroke-opacity="0.1" stroke-width="1.02059"/>
</g>
</svg>
