<svg width="24" height="24" viewBox="0 0 24 24" fill="none" xmlns="http://www.w3.org/2000/svg">
<g clip-path="url(#clip0_5307_17228)">
<rect width="24" height="24" rx="6" fill="#929A65" fill-opacity="0.05"/>
<rect width="24" height="24" fill="#929A65" fill-opacity="0.05"/>
<g clip-path="url(#clip1_5307_17228)">
<path d="M12 14C13.1046 14 14 13.1046 14 12C14 10.8954 13.1046 10 12 10C10.8954 10 10 10.8954 10 12C10 13.1046 10.8954 14 12 14Z" stroke="#888B74" stroke-linecap="round" stroke-linejoin="round"/>
<path d="M19 8H5V16H19V8Z" stroke="#888B74" stroke-linecap="round" stroke-linejoin="round"/>
<path d="M19 10.5C18.3754 10.3941 17.7992 10.0966 17.3513 9.64869C16.9034 9.20075 16.6059 8.62457 16.5 8" stroke="#888B74" stroke-linecap="round" stroke-linejoin="round"/>
<path d="M16.5 16C16.6059 15.3754 16.9034 14.7992 17.3513 14.3513C17.7992 13.9034 18.3754 13.6059 19 13.5" stroke="#888B74" stroke-linecap="round" stroke-linejoin="round"/>
<path d="M5 13.5C5.62457 13.6059 6.20075 13.9034 6.64869 14.3513C7.09663 14.7992 7.39414 15.3754 7.5 16" stroke="#888B74" stroke-linecap="round" stroke-linejoin="round"/>
<path d="M7.5 8C7.39414 8.62457 7.09663 9.20075 6.64869 9.64869C6.20075 10.0966 5.62457 10.3941 5 10.5" stroke="#888B74" stroke-linecap="round" stroke-linejoin="round"/>
</g>
</g>
<rect x="0.5" y="0.5" width="23" height="23" rx="5.5" stroke="#929A65" stroke-opacity="0.05"/>
<defs>
<clipPath id="clip0_5307_17228">
<rect width="24" height="24" rx="6" fill="white"/>
</clipPath>
<clipPath id="clip1_5307_17228">
<rect width="16" height="16" fill="white" transform="translate(4 4)"/>
</clipPath>
</defs>
</svg>
